<?xml version="1.0" standalone="no"?>
<!DOCTYPE svg PUBLIC "-//W3C//DTD SVG 20010904//EN"
 "http://www.w3.org/TR/2001/REC-SVG-20010904/DTD/svg10.dtd">
<svg version="1.0" xmlns="http://www.w3.org/2000/svg"
 width="278.000000pt" height="278.000000pt" viewBox="0 0 278.000000 278.000000"
 preserveAspectRatio="xMidYMid meet">
<metadata>
Created by potrace 1.14, written by Peter Selinger 2001-2017
</metadata>
<g transform="translate(0.000000,278.000000) scale(0.100000,-0.100000)"
fill="#000000" stroke="none">
<path d="M1960 2055 c0 -24 -3 -25 -55 -25 -52 0 -55 -1 -55 -25 0 -24 -3 -25
-55 -25 -54 0 -55 0 -55 -30 0 -25 -4 -30 -25 -30 -20 0 -25 -5 -25 -25 0 -21
-5 -25 -30 -25 -27 0 -30 -3 -30 -30 0 -25 -4 -30 -25 -30 -20 0 -25 -5 -25
-25 0 -21 -5 -25 -30 -25 -27 0 -30 -3 -30 -30 0 -27 -3 -30 -30 -30 -27 0
-30 -3 -30 -30 0 -25 -4 -30 -25 -30 -20 0 -25 -5 -25 -25 0 -21 -5 -25 -30
-25 -27 0 -30 -3 -30 -30 0 -25 -4 -30 -25 -30 -20 0 -25 -5 -25 -25 0 -20 -5
-25 -25 -25 -21 0 -25 -5 -25 -30 0 -27 -3 -30 -30 -30 -25 0 -30 -4 -30 -25
0 -20 -5 -25 -25 -25 -21 0 -25 -5 -25 -30 0 -27 -3 -30 -30 -30 -25 0 -30 -4
-30 -24 0 -19 -6 -25 -27 -28 -22 -2 -29 -9 -31 -30 -3 -22 -9 -28 -27 -28
-18 0 -24 -6 -27 -27 -2 -22 -9 -29 -30 -31 -22 -3 -28 -9 -28 -28 0 -19 -5
-24 -24 -24 -18 0 -25 -6 -28 -22 -3 -20 -10 -23 -55 -26 -51 -3 -53 -2 -53
22 0 21 5 26 25 26 25 0 25 1 25 85 l0 85 -55 0 c-54 0 -55 0 -55 -30 0 -25
-4 -30 -25 -30 -24 0 -25 -3 -25 -55 0 -54 0 -55 -30 -55 -29 0 -30 -1 -30
-50 0 -49 1 -50 30 -50 27 0 30 -3 30 -30 0 -25 4 -30 25 -30 25 0 25 -1 25
-85 0 -84 0 -85 -25 -85 -20 0 -25 -5 -25 -25 0 -24 -3 -25 -55 -25 l-55 0 0
-85 0 -85 80 0 80 0 0 55 c0 54 0 55 30 55 27 0 30 3 30 30 l0 30 80 0 80 0 0
-30 c0 -27 3 -30 30 -30 25 0 30 -4 30 -25 0 -24 3 -25 55 -25 52 0 55 1 55
25 0 24 3 25 55 25 54 0 55 0 55 30 0 27 3 30 31 30 l30 0 -3 53 -3 52 -82 3
-82 3 -3 -28 c-2 -22 -8 -28 -28 -28 -23 0 -25 4 -28 58 l-3 57 31 0 c25 0 30
4 30 25 0 20 5 25 25 25 21 0 25 5 25 30 0 27 3 30 30 30 25 0 30 4 30 25 0
20 5 25 25 25 20 0 25 5 25 25 0 21 5 25 30 25 27 0 30 3 30 30 0 25 4 30 25
30 20 0 25 5 25 25 0 21 5 25 30 25 27 0 30 3 30 30 0 25 4 30 25 30 20 0 25
5 25 25 0 21 5 25 30 25 27 0 30 3 30 30 0 25 4 30 25 30 20 0 25 5 25 25 0
21 5 25 30 25 27 0 30 3 30 30 0 25 4 30 24 30 19 0 25 6 28 28 2 21 9 28 31
30 21 3 27 9 27 28 0 19 5 24 25 24 21 0 25 5 25 30 0 27 3 30 30 30 25 0 30
4 30 25 0 20 5 25 25 25 21 0 25 5 25 30 0 27 3 30 30 30 25 0 30 4 30 25 0
20 5 25 25 25 21 0 25 5 25 30 0 27 3 30 30 30 25 0 30 4 30 25 0 20 5 25 25
25 21 0 25 5 25 30 l0 30 60 0 c57 0 60 1 60 24 0 19 -6 25 -27 28 -20 2 -29
9 -31 26 -3 21 -7 22 -113 22 l-109 0 0 -25z"/>
</g>
</svg>
